{
  "accessors": [
    {
      "bufferView": 2,
      "componentType": 5126,
      "count": 1624,
      "max": [
        17.098320007324219,
        21.350811004638672,
        87.556442260742188
      ],
      "min": [
        -17.098320007324219,
        17.183780670166016,
        54.417671203613281
      ],
      "type": "VEC3"
    },
    {
      "bufferView": 2,
      "byteOffset": 19488,
      "componentType": 5126,
      "count": 1624,
      "max": [
        0.91205435991287231,
        -0.28318580985069275,
        0.94111400842666626
      ],
      "min": [
        -0.91205435991287231,
        -0.99852710962295532,
        -0.86682349443435669
      ],
      "type": "VEC3"
    },
    {
      "bufferView": 3,
      "componentType": 5126,
      "count": 1624,
      "max": [
        0.99999922513961792,
        0.89539980888366699,
        0.99239641427993774,
        1
      ],
      "min": [
        -0.99999922513961792,
        -0.87329697608947754,
        -0.93668556213378906,
        -1
      ],
      "type": "VEC4"
    },
    {
      "bufferView": 1,
      "componentType": 5126,
      "count": 1624,
      "max": [
        0.61894601583480835,
        0.52469801902770996
      ],
      "min": [
        0.089773997664451599,
        0.0025359999854117632
      ],
      "type": "VEC2"
    },
    {
      "bufferView": 0,
      "componentType": 5125,
      "count": 2436,
      "max": [
        1623
      ],
      "min": [
        0
      ],
      "type": "SCALAR"
    },
    {
      "bufferView": 2,
      "byteOffset": 38976,
      "componentType": 5126,
      "count": 9821,
      "max": [
        24.2156982421875,
        24.425775527954102,
        92.970573425292969
      ],
      "min": [
        -24.2156982421875,
        -24.398935317993164,
        -0.0020320001058280468
      ],
      "type": "VEC3"
    },
    {
      "bufferView": 2,
      "byteOffset": 156828,
      "componentType": 5126,
      "count": 9821,
      "max": [
        1,
        1,
        0.99999523162841797
      ],
      "min": [
        -1,
        -1,
        -1
      ],
      "type": "VEC3"
    },
    {
      "bufferView": 3,
      "byteOffset": 25984,
      "componentType": 5126,
      "count": 9821,
      "max": [
        1,
        1,
        1,
        1
      ],
      "min": [
        -1,
        -1,
        -1,
        -1
      ],
      "type": "VEC4"
    },
    {
      "bufferView": 1,
      "byteOffset": 12992,
      "componentType": 5126,
      "count": 9821,
      "max": [
        0.99742001295089722,
        0.99718201160430908
      ],
      "min": [
        0.0025359999854117632,
        0.0025329999625682831
      ],
      "type": "VEC2"
    },
    {
      "bufferView": 0,
      "byteOffset": 9744,
      "componentType": 5125,
      "count": 32853,
      "max": [
        9820
      ],
      "min": [
        0
      ],
      "type": "SCALAR"
    },
    {
      "bufferView": 2,
      "byteOffset": 274680,
      "componentType": 5126,
      "count": 106,
      "max": [
        18.84709358215332,
        21.544294357299805,
        87.26947021484375
      ],
      "min": [
        -18.84709358215332,
        -19.559364318847656,
        44.880210876464844
      ],
      "type": "VEC3"
    },
    {
      "bufferView": 2,
      "byteOffset": 275952,
      "componentType": 5126,
      "count": 106,
      "max": [
        0,
        -0,
        1
      ],
      "min": [
        0,
        -0.99255532026290894,
        0.12179450690746307
      ],
      "type": "VEC3"
    },
    {
      "bufferView": 3,
      "byteOffset": 183120,
      "componentType": 5126,
      "count": 106,
      "max": [
        -0.9999995231628418,
        0.0010424795327708125,
        5.1873989832529332e-06,
        -1
      ],
      "min": [
        -1,
        -0.0010381166357547045,
        -5.1700758376682643e-06,
        -1
      ],
      "type": "VEC4"
    },
    {
      "bufferView": 1,
      "byteOffset": 91560,
      "componentType": 5126,
      "count": 106,
      "max": [
        1.0510419607162476,
        0.98854202032089233
      ],
      "min": [
        0.05122699961066246,
        0.05944100022315979
      ],
      "type": "VEC2"
    },
    {
      "bufferView": 0,
      "byteOffset": 141156,
      "componentType": 5125,
      "count": 306,
      "max": [
        105
      ],
      "min": [
        0
      ],
      "type": "SCALAR"
    }
  ],
  "asset": {
    "extras": {
      "author": "Interiors3D (https://sketchfab.com/Interiors3D)",
      "license": "CC-BY-4.0 (http://creativecommons.org/licenses/by/4.0/)",
      "source": "https://sketchfab.com/3d-models/hbg000-ebe2a3d402c5411eab46dc477aa55124",
      "title": "HBG000"
    },
    "generator": "Sketchfab-10.11.2",
    "version": "2.0"
  },
  "bufferViews": [
    {
      "buffer": 0,
      "byteLength": 142380,
      "byteOffset": 0,
      "name": "floatBufferViews",
      "target": 34963
    },
    {
      "buffer": 0,
      "byteLength": 92408,
      "byteOffset": 142380,
      "byteStride": 8,
      "name": "floatBufferViews",
      "target": 34962
    },
    {
      "buffer": 0,
      "byteLength": 277224,
      "byteOffset": 234788,
      "byteStride": 12,
      "name": "floatBufferViews",
      "target": 34962
    },
    {
      "buffer": 0,
      "byteLength": 184816,
      "byteOffset": 512012,
      "byteStride": 16,
      "name": "floatBufferViews",
      "target": 34962
    }
  ],
  "buffers": [
    {
      "byteLength": 696828,
      "uri": "scene.bin"
    }
  ],
  "images": [
    {
      "uri": "textures/Chateau_baseColor.jpeg"
    },
    {
      "uri": "textures/Chateau_metallicRoughness.png"
    },
    {
      "uri": "textures/Chateau_normal.png"
    },
    {
      "uri": "textures/Rattan_baseColor.png"
    },
    {
      "uri": "textures/Rattan_metallicRoughness.png"
    },
    {
      "uri": "textures/Rattan_normal.png"
    }
  ],
  "materials": [
    {
      "doubleSided": true,
      "name": "Chateau",
      "normalTexture": {
        "index": 2,
        "scale": 1,
        "texCoord": 0
      },
      "pbrMetallicRoughness": {
        "baseColorFactor": [
          1,
          1,
          1,
          1
        ],
        "baseColorTexture": {
          "index": 0,
          "texCoord": 0
        },
        "metallicFactor": 0,
        "metallicRoughnessTexture": {
          "index": 1,
          "texCoord": 0
        },
        "roughnessFactor": 1
      }
    },
    {
      "alphaMode": "BLEND",
      "doubleSided": true,
      "name": "Rattan",
      "normalTexture": {
        "index": 5,
        "scale": 0.59999999999999998,
        "texCoord": 0
      },
      "occlusionTexture": {
        "index": 4,
        "strength": 1,
        "texCoord": 0
      },
      "pbrMetallicRoughness": {
        "baseColorFactor": [
          1,
          1,
          1,
          1
        ],
        "baseColorTexture": {
          "index": 3,
          "texCoord": 0
        },
        "metallicFactor": 0,
        "metallicRoughnessTexture": {
          "index": 4,
          "texCoord": 0
        },
        "roughnessFactor": 1
      }
    }
  ],
  "meshes": [
    {
      "primitives": [
        {
          "attributes": {
            "NORMAL": 1,
            "POSITION": 0,
            "TANGENT": 2,
            "TEXCOORD_0": 3
          },
          "indices": 4,
          "material": 0,
          "mode": 4
        }
      ]
    },
    {
      "primitives": [
        {
          "attributes": {
            "NORMAL": 6,
            "POSITION": 5,
            "TANGENT": 7,
            "TEXCOORD_0": 8
          },
          "indices": 9,
          "material": 0,
          "mode": 4
        }
      ]
    },
    {
      "primitives": [
        {
          "attributes": {
            "NORMAL": 11,
            "POSITION": 10,
            "TANGENT": 12,
            "TEXCOORD_0": 13
          },
          "indices": 14,
          "material": 1,
          "mode": 4
        }
      ]
    }
  ],
  "nodes": [
    {
      "children": [
        1
      ],
      "name": "RootNode (gltf orientation matrix)",
      "rotation": [
        -0.70710678118654746,
        -0,
        -0,
        0.70710678118654757
      ]
    },
    {
      "children": [
        2
      ],
      "name": "RootNode (model correction matrix)"
    },
    {
      "children": [
        3,
        4,
        5
      ],
      "name": "W03 - HBG000 - Sketchfab - mesh.obj.cleaner.materialmerger.gles"
    },
    {
      "mesh": 0,
      "name": ""
    },
    {
      "mesh": 1,
      "name": ""
    },
    {
      "mesh": 2,
      "name": ""
    }
  ],
  "samplers": [
    {
      "magFilter": 9729,
      "minFilter": 9987,
      "wrapS": 10497,
      "wrapT": 10497
    }
  ],
  "scene": 0,
  "scenes": [
    {
      "name": "OSG_Scene",
      "nodes": [
        0
      ]
    }
  ],
  "textures": [
    {
      "sampler": 0,
      "source": 0
    },
    {
      "sampler": 0,
      "source": 1
    },
    {
      "sampler": 0,
      "source": 2
    },
    {
      "sampler": 0,
      "source": 3
    },
    {
      "sampler": 0,
      "source": 4
    },
    {
      "sampler": 0,
      "source": 5
    }
  ]
}

